# xmcd
#
# Track frame offsets:
#	150
#	18192
#	36172
#	53652
#	70020
#	86487
#	104805
#	123000
#	139402
#	158407
#	175387
#
# Disc length: 2584 seconds
#
# Revision: 0
# Processed by: cddbd v1.5.2PL0 Copyright (c) Steve Scherf et al.
# Submitted via: audiograbber 1.83.01
#
DISCID=890a160b
DTITLE=Moisés y la gente del camino - Me voy contigo a Bailar
DYEAR=2015
DGENRE=Bailable
TTITLE0=Me voy contigo a Bailar
TTITLE1=Me gusta la negra
TTITLE2=La pata carnavaleando
TTITLE3=El siete pillao
TTITLE4=Tamarindo bailador
TTITLE5=Dime la trampa
TTITLE6=Tabaco de matimba
TTITLE7=Ni pie ni mafafa
TTITLE8=Vidita flaca
TTITLE9=Viva la pava
TTITLE10=Matica bella de navidad
EXTD=Música de banda
EXTT0=
EXTT1=
EXTT2=
EXTT3=
EXTT4=
EXTT5=
EXTT6=
EXTT7=
EXTT8=
EXTT9=
EXTT10=
PLAYORDER=
